<svg width="36" height="28" fill="none" xmlns="http://www.w3.org/2000/svg"><path d="M30.211 0H5.158a3.675 3.675 0 00-3.649 4.163.737.737 0 001.104.541c.325-.189.695-.287 1.071-.283h5.247a2.222 2.222 0 012.095 1.5l.126.404a3.702 3.702 0 003.497 2.517h17.036c.386 0 .766.102 1.1.295a.737.737 0 001.11-.637V3.684A3.684 3.684 0 0030.211 0z" fill="#FFB110"/><path d="M33.531 7.866a3.662 3.662 0 00-1.846-.498H14.649a2.222 2.222 0 01-2.096-1.5l-.125-.404A3.702 3.702 0 008.93 2.947H3.684a3.526 3.526 0 00-1.804.476A3.675 3.675 0 000 6.631v17.685A3.684 3.684 0 003.684 28h28a3.684 3.684 0 003.685-3.684V11.053a3.66 3.66 0 00-1.838-3.187z" fill="#FFDE6C"/></svg>