<svg height="40" width="135" xmlns="http://www.w3.org/2000/svg"><linearGradient id="prefix__a" gradientTransform="matrix(1 0 0 -1 0 182)" gradientUnits="userSpaceOnUse" x1="21.8" x2="5.017" y1="173.29" y2="156.508"><stop offset="0" stop-color="#00a0ff"/><stop offset=".007" stop-color="#00a1ff"/><stop offset=".26" stop-color="#00beff"/><stop offset=".512" stop-color="#00d2ff"/><stop offset=".76" stop-color="#00dfff"/><stop offset="1" stop-color="#00e3ff"/></linearGradient><linearGradient id="prefix__b" gradientTransform="matrix(1 0 0 -1 0 182)" gradientUnits="userSpaceOnUse" x1="33.834" x2="9.637" y1="161.999" y2="161.999"><stop offset="0" stop-color="#ffe000"/><stop offset=".409" stop-color="#ffbd00"/><stop offset=".775" stop-color="orange"/><stop offset="1" stop-color="#ff9c00"/></linearGradient><linearGradient id="prefix__c" gradientTransform="matrix(1 0 0 -1 0 182)" gradientUnits="userSpaceOnUse" x1="24.827" x2="2.069" y1="159.704" y2="136.946"><stop offset="0" stop-color="#ff3a44"/><stop offset="1" stop-color="#c31162"/></linearGradient><linearGradient id="prefix__d" gradientTransform="matrix(1 0 0 -1 0 182)" gradientUnits="userSpaceOnUse" x1="7.297" x2="17.46" y1="181.824" y2="171.661"><stop offset="0" stop-color="#32a071"/><stop offset=".069" stop-color="#2da771"/><stop offset=".476" stop-color="#15cf74"/><stop offset=".801" stop-color="#06e775"/><stop offset="1" stop-color="#00f076"/></linearGradient><path d="M130 40H5c-2.8 0-5-2.3-5-5V5c0-2.7 2.3-5 5-5h125c2.8 0 5 2.3 5 5v30c0 2.7-2.2 5-5 5z"/><path d="M130 .8c2.3 0 4.2 1.9 4.2 4.2v30c0 2.3-1.9 4.2-4.2 4.2H5C2.7 39.2.8 37.3.8 35V5C.8 2.7 2.7.8 5 .8zm0-.8H5C2.3 0 0 2.3 0 5v30c0 2.8 2.3 5 5 5h125c2.8 0 5-2.3 5-5V5c0-2.7-2.2-5-5-5z" fill="#a6a6a6"/><path d="M68.1 21.8c-2.4 0-4.3 1.8-4.3 4.3 0 2.4 1.9 4.3 4.3 4.3s4.3-1.8 4.3-4.3c0-2.6-1.9-4.3-4.3-4.3zm0 6.8c-1.3 0-2.4-1.1-2.4-2.6s1.1-2.6 2.4-2.6 2.4 1 2.4 2.6c0 1.5-1.1 2.6-2.4 2.6zm-9.3-6.8c-2.4 0-4.3 1.8-4.3 4.3 0 2.4 1.9 4.3 4.3 4.3s4.3-1.8 4.3-4.3c0-2.6-1.9-4.3-4.3-4.3zm0 6.8c-1.3 0-2.4-1.1-2.4-2.6s1.1-2.6 2.4-2.6 2.4 1 2.4 2.6c0 1.5-1.1 2.6-2.4 2.6zm-11.1-5.5v1.8H52c-.1 1-.5 1.8-1 2.3-.6.6-1.6 1.3-3.3 1.3-2.7 0-4.7-2.1-4.7-4.8s2.1-4.8 4.7-4.8c1.4 0 2.5.6 3.3 1.3l1.3-1.3c-1.1-1-2.5-1.8-4.5-1.8-3.6 0-6.7 3-6.7 6.6s3.1 6.6 6.7 6.6c2 0 3.4-.6 4.6-1.9 1.2-1.2 1.6-2.9 1.6-4.2 0-.4 0-.8-.1-1.1zm45.4 1.4c-.4-1-1.4-2.7-3.6-2.7s-4 1.7-4 4.3c0 2.4 1.8 4.3 4.2 4.3 1.9 0 3.1-1.2 3.5-1.9l-1.4-1c-.5.7-1.1 1.2-2.1 1.2s-1.6-.4-2.1-1.3l5.7-2.4zm-5.8 1.4c0-1.6 1.3-2.5 2.2-2.5.7 0 1.4.4 1.6.9zM82.6 30h1.9V17.5h-1.9zm-3-7.3c-.5-.5-1.3-1-2.3-1-2.1 0-4.1 1.9-4.1 4.3s1.9 4.2 4.1 4.2c1 0 1.8-.5 2.2-1h.1v.6c0 1.6-.9 2.5-2.3 2.5-1.1 0-1.9-.8-2.1-1.5l-1.6.7c.5 1.1 1.7 2.5 3.8 2.5 2.2 0 4-1.3 4-4.4V22h-1.8zm-2.2 5.9c-1.3 0-2.4-1.1-2.4-2.6s1.1-2.6 2.4-2.6 2.3 1.1 2.3 2.6-1 2.6-2.3 2.6zm24.4-11.1h-4.5V30h1.9v-4.7h2.6c2.1 0 4.1-1.5 4.1-3.9s-2-3.9-4.1-3.9zm.1 6h-2.7v-4.3h2.7c1.4 0 2.2 1.2 2.2 2.1-.1 1.1-.9 2.2-2.2 2.2zm11.5-1.8c-1.4 0-2.8.6-3.3 1.9l1.7.7c.4-.7 1-.9 1.7-.9 1 0 1.9.6 2 1.6v.1c-.3-.2-1.1-.5-1.9-.5-1.8 0-3.6 1-3.6 2.8 0 1.7 1.5 2.8 3.1 2.8 1.3 0 1.9-.6 2.4-1.2h.1v1h1.8v-4.8c-.2-2.2-1.9-3.5-4-3.5zm-.2 6.9c-.6 0-1.5-.3-1.5-1.1 0-1 1.1-1.3 2-1.3.8 0 1.2.2 1.7.4-.2 1.2-1.2 2-2.2 2zm10.5-6.6l-2.1 5.4h-.1l-2.2-5.4h-2l3.3 7.6-1.9 4.2h1.9l5.1-11.8zm-16.8 8h1.9V17.5h-1.9z" fill="#fff"/><path d="M10.4 7.5c-.3.3-.4.8-.4 1.4V31c0 .6.2 1.1.5 1.4l.1.1L23 20.1v-.2z" fill="url(#prefix__a)"/><path d="M27 24.3l-4.1-4.1v-.3l4.1-4.1.1.1 4.9 2.8c1.4.8 1.4 2.1 0 2.9z" fill="url(#prefix__b)"/><path d="M27.1 24.2L22.9 20 10.4 32.5c.5.5 1.2.5 2.1.1z" fill="url(#prefix__c)"/><path d="M27.1 15.8L12.5 7.5c-.9-.5-1.6-.4-2.1.1L22.9 20z" fill="url(#prefix__d)"/><path d="M27 24.1l-14.5 8.2c-.8.5-1.5.4-2 0l-.1.1.1.1c.5.4 1.2.5 2 0z" opacity=".2"/><path d="M10.4 32.3c-.3-.3-.4-.8-.4-1.4v.1c0 .6.2 1.1.5 1.4v-.1zm21.6-11l-5 2.8.1.1 4.9-2.8c.7-.4 1-.9 1-1.4 0 .5-.4.9-1 1.3z" opacity=".12"/><g fill="#fff"><path d="M12.5 7.6L32 18.7c.6.4 1 .8 1 1.3 0-.5-.3-1-1-1.4L12.5 7.5c-1.4-.8-2.5-.2-2.5 1.4V9c0-1.5 1.1-2.2 2.5-1.4z" opacity=".25"/><path d="M42.1 14.3h-.7v-2h.6c.5-.4.8-1.2.8-2.3V7h4v5.3h.7v2h-.7V13h-4.6v1.3zm1.4-4.3c0 .9-.2 1.7-.6 2.3h3V7.7h-2.5V10zm9.9 2.2c-.6.6-1.3.9-2.2.9s-1.6-.3-2.2-.9-.9-1.3-.9-2.2.3-1.6.9-2.2 1.3-.9 2.2-.9 1.6.3 2.2.9.9 1.3.9 2.2-.3 1.6-.9 2.2zm-3.8-.5c.4.4 1 .7 1.6.7s1.2-.2 1.6-.7c.4-.4.7-1 .7-1.7s-.2-1.3-.7-1.7c-.4-.4-1-.7-1.6-.7s-1.2.2-1.6.7c-.4.4-.7 1-.7 1.7s.2 1.3.7 1.7zm8.6 1.4c-.9 0-1.6-.3-2.2-.9s-.9-1.3-.9-2.2.3-1.6.9-2.2 1.3-.9 2.2-.9 1.6.3 2.2 1l-.5.5c-.4-.5-1-.8-1.7-.8s-1.2.2-1.7.7c-.5.4-.7 1-.7 1.7s.2 1.3.7 1.7c.4.4 1 .7 1.7.7s1.3-.3 1.8-.9l.5.5c-.3.3-.6.6-1 .8s-.8.3-1.3.3zm5.5-.1h-.8V7.7h-1.7V7h4.1v.7h-1.7V13zm6.9-6l-2.3 5.1c-.3.7-.8 1.1-1.4 1.1-.2 0-.4 0-.6-.1l.2-.7c.1.1.3.1.4.1.2 0 .3 0 .4-.1s.2-.2.3-.4l.2-.5-2-4.4h.9l1.5 3.4L69.7 7zm.9 6V7h4.3v6H75V7.7h-2.8V13zm5.7 0V7h.8v2.6h3V7h.8v6H81v-2.7h-3V13zm10.9-.8c-.6.6-1.3.9-2.2.9s-1.6-.3-2.2-.9-.9-1.3-.9-2.2.3-1.6.9-2.2 1.3-.9 2.2-.9 1.6.3 2.2.9.9 1.3.9 2.2c-.1.9-.4 1.6-.9 2.2zm-3.9-.5c.4.4 1 .7 1.6.7s1.2-.2 1.6-.7c.4-.4.7-1 .7-1.7s-.2-1.3-.7-1.7c-.4-.4-1-.7-1.6-.7s-1.2.2-1.6.7a2.413 2.413 0 000 3.4zm7.9 1.3V7h2.2c.5 0 .9.2 1.2.5s.5.7.5 1.1c0 .3-.1.5-.2.8-.1.2-.3.4-.6.5.3.1.5.3.7.5s.3.5.3.9c0 .5-.2.9-.5 1.2-.4.3-.8.5-1.3.5zm.8-3.4h1.4c.3 0 .5-.1.7-.3s.3-.4.3-.6-.2-.5-.3-.7c-.2-.2-.4-.3-.7-.3h-1.4zm0 2.7h1.6c.3 0 .5-.1.7-.3s.3-.4.3-.7c0-.2-.1-.5-.3-.7s-.4-.3-.7-.3H93v2z" stroke="#fff" stroke-miterlimit="10" stroke-width=".2"/></g></svg>