<svg width="200" height="42" fill="none" xmlns="http://www.w3.org/2000/svg"><path d="M5.732 32.983v7.24h-.979v-6.371H.973v6.37H0v-7.239h5.732zM9.447 40.223h-.979v-7.24h3.264c1.337 0 2.146.869 2.146 2.035 0 1.007-.58 2.153-2.146 2.153H9.447v3.052zm0-3.889h1.945c.878 0 1.475-.33 1.475-1.306 0-.91-.628-1.208-1.434-1.208H9.447v2.514zM21.45 40.223h-5.347v-7.24h5.277v.869h-4.298v2.135h3.958v.871h-3.958v2.514h4.368v.85zM29.303 32.983v6.375h.64v2.43h-.9v-1.565h-4.947v1.569H23.2v-2.43h.607c.695-1.438.757-2.396.757-4.084v-2.291l4.74-.004zm-.975.869H25.55v1.614c0 1.608-.118 2.642-.75 3.892h3.535l-.007-5.506zM32.171 32.983h3.18c1.358 0 2.046.837 2.046 1.823a1.597 1.597 0 01-.969 1.518c.48.19 1.32.52 1.32 1.756 0 1.167-.858 2.143-2.466 2.143h-3.124l.013-7.24zm.976 3.063h1.767c.938 0 1.504-.281 1.504-1.167 0-.67-.407-1.059-1.493-1.059h-1.778v2.226zm0 3.34h2.083c1.018 0 1.535-.518 1.535-1.326 0-1.018-.9-1.216-1.694-1.216h-1.927l.003 2.542zM42.896 40.414c-2.7 0-3.52-2.243-3.52-3.82 0-1.576.82-3.819 3.52-3.819 2.702 0 3.52 2.243 3.52 3.82 0 1.576-.815 3.819-3.52 3.819zm0-6.754c-1.576 0-2.513 1.22-2.513 2.924 0 1.705.937 2.962 2.513 2.962 1.577 0 2.514-1.236 2.514-2.941 0-1.705-.937-2.944-2.514-2.944zM53.444 35.168c-.27-1.278-1.326-1.507-2.024-1.507-1.309 0-2.364.969-2.364 2.871 0 1.709.597 3.014 2.392 3.014.639 0 1.736-.299 2.066-1.983h.947c-.399 2.733-2.614 2.851-3.162 2.851-1.646 0-3.25-1.066-3.25-3.85 0-2.226 1.267-3.771 3.371-3.771 1.864 0 2.833 1.156 2.972 2.375h-.948zM62.149 40.223h-1.205l-1.945-2.972-2.006 2.972h-1.177l2.583-3.709-2.43-3.53h1.225l1.837 2.777 1.836-2.778h1.167l-2.43 3.532 2.545 3.708zM65.301 38.907h.042l3.67-5.923h1.121v7.239h-.98v-5.844h-.02l-3.68 5.844H64.33v-7.24h.976l-.004 5.924zM73.846 39.358h2.662v-6.374h.976v6.374h2.667v-6.374h.975v6.374h.64v2.43h-.89v-1.565h-8.01v-7.24h.98v6.375zM85.251 38.108l-.757 2.115h-1.007l2.722-7.24h1.104l2.611 7.24h-1.066l-.718-2.115H85.25zm2.545-.857l-1.07-3.191h-.02l-1.157 3.19h2.247zM97.354 40.223h-.979v-3.1h-1.614l-1.934 3.1h-1.23l2.056-3.1c-.736-.14-1.906-.591-1.906-2.157s1.187-1.983 2.385-1.983h3.222v7.24zm-.979-6.403h-2.312c-.49 0-1.31.09-1.31 1.209 0 1.017.851 1.256 1.57 1.256h2.052V33.82zM108.979 32.983v.869h-4.125v2.135h2.354c1.576 0 2.174 1.208 2.174 2.215 0 1.17-.837 2.035-2.143 2.035h-3.357v-7.254h5.097zm-4.125 6.375h2.083c.809 0 1.427-.27 1.427-1.177 0-.979-.618-1.337-1.496-1.337h-2.014v2.514zM117.353 32.984l-2.711 6.093c-.49 1.108-.979 1.347-1.57 1.347a3.578 3.578 0 01-.694-.08v-.808c.187.032.376.046.566.041.371 0 .469-.11.798-.694l-2.802-5.903h1.042l2.222 4.948 2.108-4.944h1.041zM124.158 32.983v6.375h.639v2.43h-.899v-1.565h-4.944v1.569h-.907v-2.43h.608c.694-1.438.76-2.396.76-4.084v-2.291l4.743-.004zm-.976.869h-2.777v1.614c0 1.608-.118 2.642-.747 3.892h3.531l-.007-5.506zM132.282 32.984l-2.711 6.093c-.49 1.108-.979 1.347-1.569 1.347a3.66 3.66 0 01-.695-.08v-.808c.188.032.379.046.57.041.368 0 .468-.11.798-.694l-2.802-5.903h1.042l2.225 4.948 2.101-4.944h1.041zM134.907 39.358h2.667v-6.374h.976v6.374h2.662v-6.374h.98v6.374h.638v2.43h-.888v-1.565h-8.01v-7.24h.975v6.375zM149.847 40.223H144.5v-7.24h5.274v.869h-4.298v2.135h3.961v.871h-3.961v2.514h4.371v.85zM157.701 40.223h-5.347v-7.24h5.274v.869h-4.299v2.135h3.952v.871h-3.952v2.514h4.372v.85z" fill="#222"/><path d="M17.03 7.19c-.858-3.763-3.184-5.208-6.944-5.208-5.326 0-7.621 4.559-7.621 9.763 0 4.927 1.805 9.885 7.805 9.885 3.792 0 6.152-2.57 6.975-6.055h2.17c-.975 4.253-3.638 7.833-9.548 7.833-6.794 0-9.485-5.358-9.485-11.6 0-8.416 4.402-11.6 10.253-11.6 4.513 0 7.832 2.43 8.537 6.979l-2.142.003zM25.814 9.946h.06c1.013-2.541 2.513-3.402 5.173-3.402v1.993c-4.132 0-5.233 2.968-5.233 6.517v7.777h-1.837V6.978h1.837v2.968zM48.799 14.901c0 5.02-2.91 8.357-7.347 8.357-4.038 0-7.346-2.82-7.346-8.357 0-4.621 2.45-8.357 7.346-8.357 4.958 0 7.347 3.705 7.347 8.357zm-12.732 0c0 3.951 1.865 6.704 5.385 6.704 3.858 0 5.389-3.305 5.389-6.704 0-3.732-1.5-6.7-5.389-6.7-3.888 0-5.385 3.273-5.385 6.7zM64.496 11.964c-.64-2.364-2.264-3.753-4.712-3.753-3.764 0-5.322 3.423-5.322 6.729 0 3.305 1.524 6.673 5.322 6.673 2.726 0 4.437-1.622 4.86-4.257H66.6c-.643 3.52-2.848 5.902-6.826 5.902-5.049 0-7.292-3.645-7.292-8.332 0-4.406 2.542-8.385 7.292-8.385 3.649 0 6.03 1.736 6.596 5.416l-1.874.007zM72.884 6.978v10.416c0 2.722 1.198 4.226 4.069 4.226 3.031 0 4.84-2.514 4.84-6V6.978h1.836v15.853h-1.836v-2.204h-.031c-1.195 1.468-2.695 2.632-5.083 2.632-4.226 0-5.628-2.542-5.628-5.847V6.978h1.833zM100.184 18.626c0 3.035-2.722 4.625-6.458 4.625s-5.885-2.382-6.024-5.381h1.875c.58 2.725 1.983 3.735 4.743 3.735 2.66 0 3.916-1.41 3.916-2.937 0-4.593-10.166-1.35-10.166-7.593 0-2.632 2.049-4.531 5.576-4.531 3.427 0 5.66 1.41 6.118 4.99h-1.868C97.55 9.084 95.906 8.2 93.612 8.2c-2.295 0-3.58 1.1-3.58 2.722 0 4.316 10.159 1.621 10.159 7.711M130.581 7.19c-.736-3.305-3.645-5.207-6.919-5.207-5.816 0-8.26 4.288-8.26 10.527 0 4.86 2.937 9.12 7.985 9.12 4.257 0 7.59-2.777 7.59-8.415h-7.433V11.44h9.433v11.388H131.2v-3.763c-1.532 2.635-3.889 4.347-8.233 4.347-5.555 0-9.645-3.886-9.645-11.722 0-6.458 3.25-11.478 10.194-11.478 4.624 0 8.266 2.264 9.211 6.979h-2.146zM140.268 9.946h.059c1.014-2.541 2.51-3.402 5.173-3.402v1.993c-4.131 0-5.232 2.968-5.232 6.517v7.777h-1.833V6.978h1.833v2.968zM163.235 14.901c0 5.02-2.909 8.357-7.343 8.357-4.041 0-7.35-2.82-7.35-8.357 0-4.621 2.451-8.357 7.35-8.357 4.955 0 7.343 3.705 7.343 8.357zm-12.731 0c0 3.951 1.868 6.704 5.388 6.704 3.857 0 5.385-3.305 5.385-6.704 0-3.732-1.5-6.7-5.385-6.7s-5.388 3.273-5.388 6.7zM169.509 6.978v10.416c0 2.722 1.191 4.226 4.073 4.226 3.031 0 4.833-2.514 4.833-6V6.978h1.833v15.853h-1.833v-2.204h-.028c-1.194 1.468-2.691 2.632-5.083 2.632-4.222 0-5.632-2.542-5.632-5.847V6.978h1.837zM187.261 29.074h-1.836v-22.1h1.836v2.778h.063c1.069-2.083 3.472-3.215 5.503-3.215 5.118 0 7.17 3.642 7.17 8.333 0 4.437-2.24 8.388-7.073 8.388-2.236 0-4.514-1.041-5.663-2.972v8.788zm0-13.958c0 3.427 1.899 6.49 5.358 6.49 3.09 0 5.416-2.82 5.416-6.427 0-3.82-1.621-6.979-5.416-6.979-3.184 0-5.358 2.43-5.358 6.916z" fill="#000"/></svg>